<svg xmlns="http://www.w3.org/2000/svg" viewBox="0 0 269.89 269.89"><defs><style>.cls-1,.cls-3,.cls-6,.cls-7{fill:none;}.cls-1{stroke:#4fbaea;stroke-width:10px;}.cls-1,.cls-6,.cls-7{stroke-miterlimit:10;}.cls-2{font-size:36px;font-family:Arial-BoldMT, Arial;font-weight:700;}.cls-3{stroke:#fff;stroke-width:12px;}.cls-4{fill:#4dbaea;}.cls-5{fill:#fff;}.cls-6,.cls-7{stroke:#00aeef;}.cls-6{stroke-width:5px;}.cls-7{stroke-width:3px;}</style></defs><g id="Layer_2" data-name="Layer 2"><g id="Layer_1-2" data-name="Layer 1"><circle id="Border" class="cls-1" cx="134.94" cy="134.94" r="129.94"/><text class="cls-2" transform="translate(53.32 144.85) rotate(-90.93)">1</text><text class="cls-2" transform="matrix(0.22, -0.97, 0.97, 0.22, 52.99, 126.15)">0</text><text class="cls-2" transform="translate(57.02 107.89) rotate(-63.97)">0</text><text class="cls-2" transform="translate(64.17 90.74) rotate(-47.05)">%</text><text class="cls-2" transform="translate(85.79 69.18) rotate(-33.42)"> </text><text class="cls-2" transform="translate(92.67 63.51) rotate(-21.67)">H</text><text class="cls-2" transform="translate(115.24 54.29) rotate(-4.67)">À</text><text class="cls-2" transform="matrix(0.98, 0.21, -0.21, 0.98, 139.53, 52.05)">N</text><text class="cls-2" transform="translate(163.43 56.78) rotate(29.83)">G</text><text class="cls-2" transform="matrix(0.74, 0.67, -0.67, 0.74, 186.11, 70.74)"> </text><text class="cls-2" transform="matrix(0.57, 0.82, -0.82, 0.57, 193.51, 75.72)">M</text><text class="cls-2" transform="translate(209.95 98.64) rotate(74.97)">Ớ</text><text class="cls-2" transform="translate(216.53 127.13) rotate(88.21)">I</text><path class="cls-3" d="M112.42,148.17l20.48,20.47L179.5,122"/><path class="cls-4" d="M66.29,134.94a66.14,66.14,0,1,1,66.14,66.15A66.14,66.14,0,0,1,66.29,134.94Z"/><path class="cls-5" d="M177.9,115.87l-8.28,0c-6.21-13.91-18.38-24-33.77-26.37-17.14-2.69-33.54,5.27-43.32,19.28-4.35,6.22,5.86,12,10.17,5.87,13.42-19.2,42.06-17.47,53.83,1.25l-7.64,0a1.8,1.8,0,0,0-1.54.77,1.7,1.7,0,0,0-.17,2.18q7.29,11.3,14.56,22.59a2,2,0,0,0,3.39,0l14.45-22.66A2,2,0,0,0,177.9,115.87Z"/><path class="cls-5" d="M158,159.27c-12.25,17.53-38.29,16.1-49.27-.75h6.74a1.69,1.69,0,0,0,1.41-.71,1.56,1.56,0,0,0,.16-2q-6.7-10.38-13.4-20.78a1.82,1.82,0,0,0-3.11,0L87.27,155.87a1.81,1.81,0,0,0,1.54,2.7l7.85,0c5.77,12.59,16.87,21.67,30.87,23.86,15.77,2.47,30.86-4.85,39.86-17.73C171.38,159,162,153.6,158,159.27Z"/><path class="cls-6" d="M226.62,141.34c-3.09,35.73-37.06,85.48-91.68,85.49-45.79,0-85.36-34.94-91.16-80.37"/><path class="cls-7" d="M235.12,142.17c-3.38,39.17-40.46,93.89-100.69,93.9-57.59,0-94.35-50-100.12-88.1"/></g></g></svg>