<svg xmlns="http://www.w3.org/2000/svg" viewBox="0 0 269.89 269.89"><defs><style>.cls-1,.cls-3,.cls-4,.cls-6{fill:none;}.cls-1,.cls-3,.cls-4{stroke:#5d9c76;stroke-miterlimit:10;}.cls-1{stroke-width:10px;}.cls-2{font-size:36px;fill:#231f20;font-family:Arial-BoldMT, Arial;font-weight:700;}.cls-3{stroke-width:3px;}.cls-4{stroke-width:5px;}.cls-5{fill:#5d9d77;}.cls-6{stroke:#fff;stroke-width:12px;}</style></defs><g id="Layer_2" data-name="Layer 2"><g id="Layer_1-2" data-name="Layer 1"><circle id="Border" class="cls-1" cx="134.94" cy="134.94" r="129.94"/><text class="cls-2" transform="matrix(-0.27, -0.96, 0.96, -0.27, 59.71, 169.4)">K</text><text class="cls-2" transform="matrix(0.02, -1, 1, 0.02, 52.91, 145.98)">H</text><text class="cls-2" transform="translate(52.99 121.61) rotate(-71.19)">Ô</text><text class="cls-2" transform="translate(61.38 96.68) rotate(-53.57)">N</text><text class="cls-2" transform="translate(75.53 76.82) rotate(-36.06)">G</text><text class="cls-2" transform="translate(97.56 61.81) rotate(-23.67)"> </text><text class="cls-2" transform="matrix(0.98, -0.21, 0.21, 0.98, 105.3, 57.38)">C</text><text class="cls-2" transform="translate(129.13 52.14) rotate(4.94)">H</text><text class="cls-2" transform="matrix(0.93, 0.37, -0.37, 0.93, 153.42, 53.99)">Ấ</text><text class="cls-2" transform="matrix(0.79, 0.61, -0.61, 0.79, 176.07, 63.18)">T</text><text class="cls-2" transform="translate(192.34 76.26) rotate(47.95)"> </text><text class="cls-2" transform="translate(198.98 82.23) rotate(59.62)">B</text><text class="cls-2" transform="matrix(0.23, 0.97, -0.97, 0.23, 211.53, 103.16)">Ả</text><text class="cls-2" transform="translate(217.52 126.76) rotate(94.14)">O</text><text class="cls-2" transform="translate(214.78 153.27) rotate(106.54)"> </text><text class="cls-2" transform="translate(213.32 162.07) rotate(118.99)">Q</text><text class="cls-2" transform="translate(200.65 185.14) rotate(136.52)">U</text><text class="cls-2" transform="translate(183.14 202.09) rotate(153.4)">Ả</text><text class="cls-2" transform="translate(161.45 213.22) rotate(170.43)">N</text><path class="cls-3" d="M132,235.51c-43.34-.42-74.93-26.11-89.25-55.68"/><path class="cls-4" d="M132,226.83c-38.47,0-65.53-24.14-79.38-51.27"/><path class="cls-5" d="M137.77,199.76a65.32,65.32,0,1,1,65.32-65.32A65.4,65.4,0,0,1,137.77,199.76Z"/><path class="cls-5" d="M137.77,70.89a63.55,63.55,0,1,1-63.55,63.55,63.74,63.74,0,0,1,63.55-63.55m0-3.53a67.08,67.08,0,1,0,67.08,67.08,67.05,67.05,0,0,0-67.08-67.08Z"/><path class="cls-6" d="M106.7,134.8l20.48,20.47,46.6-46.6"/></g></g></svg>