<svg xmlns="http://www.w3.org/2000/svg" viewBox="0 0 269.89 269.89"><defs><style>.cls-1,.cls-4,.cls-5{fill:none;stroke:#951f1f;stroke-miterlimit:10;}.cls-1{stroke-width:10px;}.cls-2{fill:#951f1f;fill-rule:evenodd;}.cls-3{font-size:36px;font-family:Arial-BoldMT, Arial;font-weight:700;}.cls-4{stroke-width:3px;}.cls-5{stroke-width:5px;}</style></defs><g id="Layer_2" data-name="Layer 2"><g id="Layer_1-2" data-name="Layer 1"><circle id="Border" class="cls-1" cx="134.94" cy="134.94" r="129.94"/><path id="like" class="cls-2" d="M79.49,120.94H99.72a4.18,4.18,0,0,1,4.16,4.18V180.6a4.21,4.21,0,0,1-4.16,4.18H79.49a4.2,4.2,0,0,1-4.18-4.18V125.12A4.19,4.19,0,0,1,79.49,120.94Zm53.08-41.61c2.19-11.15,20.43-.88,21.64,17.08a77.47,77.47,0,0,1-1.55,19h26.08c10.83.44,20.29,8.2,13.61,20.95,1.53,5.55,1.76,12.07-2.38,14.66.52,8.75-1.92,14.2-6.46,18.49a21.79,21.79,0,0,1-3.41,11.27c-3.51,4.94-6.34,3.83-11.86,3.83H124.16c-7,0-10.77-1.91-15.33-7.66V127.86c13.24-3.51,20.22-21.47,23.74-33.25V79.33Z"/><text class="cls-3" transform="matrix(-0.27, -0.96, 0.96, -0.27, 59.71, 169.4)">C</text><text class="cls-3" transform="matrix(0.02, -1, 1, 0.02, 52.91, 145.98)">H</text><text class="cls-3" transform="translate(53.16 121.6) rotate(-71.86)">U</text><text class="cls-3" transform="translate(60.54 98.35) rotate(-54.86)">Ẩ</text><text class="cls-3" transform="translate(74.38 78.27) rotate(-38.01)">N</text><text class="cls-3" transform="matrix(0.9, -0.44, 0.44, 0.9, 94.28, 63.59)"> </text><text class="cls-3" transform="translate(101.91 58.94) rotate(-15.16)">V</text><text class="cls-3" transform="matrix(1, -0.07, 0.07, 1, 124.09, 53.52)">Ị</text><text class="cls-3" transform="translate(133.37 52.82) rotate(2.36)"> </text><text class="cls-3" transform="translate(142.24 51.9) rotate(15.39)">M</text><text class="cls-3" transform="translate(169.5 60.43) rotate(28.49)">I</text><text class="cls-3" transform="translate(177.71 63.99) rotate(39.53)">Ề</text><text class="cls-3" transform="translate(195.27 78.01) rotate(55.74)">N</text><text class="cls-3" transform="translate(208.61 98.83) rotate(67.49)"> </text><text class="cls-3" transform="translate(212.65 106.88) rotate(77.99)">T</text><text class="cls-3" transform="translate(217.36 126.82) rotate(93.49)">Â</text><text class="cls-3" transform="matrix(-0.34, 0.94, -0.94, -0.34, 215.97, 151.18)">Y</text><path class="cls-4" d="M224.07,180.39c-16.33,30.92-50.82,54.71-89,54.35-43.34-.42-74.93-26.12-89.25-55.68"/><path class="cls-5" d="M217.25,176.57a90.76,90.76,0,0,1-82,50.26c-38.46,0-68.73-24.14-82.58-51.27"/></g></g></svg>